{
  "accessors": [
    {
      "bufferView": 2,
      "componentType": 5126,
      "count": 65532,
      "max": [
        3.4687888622283936,
        4.297689914703369,
        1.3681169748306274
      ],
      "min": [
        -3.4687888622283936,
        -1.0920699834823608,
        -1.332608699798584
      ],
      "type": "VEC3"
    },
    {
      "bufferView": 2,
      "byteOffset": 786384,
      "componentType": 5126,
      "count": 65532,
      "max": [
        1.0,
        1.0,
        1.0
      ],
      "min": [
        -1.0,
        -1.0,
        -1.0
      ],
      "type": "VEC3"
    },
    {
      "bufferView": 1,
      "componentType": 5126,
      "count": 65532,
      "max": [
        18.976865768432617,
        24.98526382446289
      ],
      "min": [
        -15.458088874816895,
        -24.5
      ],
      "type": "VEC2"
    },
    {
      "bufferView": 0,
      "componentType": 5125,
      "count": 157341,
      "type": "SCALAR"
    },
    {
      "bufferView": 2,
      "byteOffset": 1572768,
      "componentType": 5126,
      "count": 276,
      "max": [
        0.0291510708630085,
        3.8059983253479004,
        0.4079379737377167
      ],
      "min": [
        -0.19749903678894043,
        2.405996322631836,
        0.34134161472320557
      ],
      "type": "VEC3"
    },
    {
      "bufferView": 2,
      "byteOffset": 1576080,
      "componentType": 5126,
      "count": 276,
      "max": [
        1.0,
        1.0,
        1.0
      ],
      "min": [
        -1.0,
        -1.0,
        -1.0
      ],
      "type": "VEC3"
    },
    {
      "bufferView": 1,
      "byteOffset": 524256,
      "componentType": 5126,
      "count": 276,
      "max": [
        1.0,
        1.0
      ],
      "min": [
        0.0,
        0.0
      ],
      "type": "VEC2"
    },
    {
      "bufferView": 0,
      "byteOffset": 629364,
      "componentType": 5125,
      "count": 882,
      "type": "SCALAR"
    },
    {
      "bufferView": 2,
      "byteOffset": 1579392,
      "componentType": 5126,
      "count": 5870,
      "max": [
        0.9344119429588318,
        3.580453872680664,
        0.9344123601913452
      ],
      "min": [
        -0.9344130158424377,
        -1.4164910316467285,
        -1.0877629518508911
      ],
      "type": "VEC3"
    },
    {
      "bufferView": 2,
      "byteOffset": 1649832,
      "componentType": 5126,
      "count": 5870,
      "max": [
        1.0,
        1.0,
        1.0
      ],
      "min": [
        -1.0,
        -1.0,
        -1.0
      ],
      "type": "VEC3"
    },
    {
      "bufferView": 1,
      "byteOffset": 526464,
      "componentType": 5126,
      "count": 5870,
      "max": [
        19.185955047607422,
        23.993431091308594
      ],
      "min": [
        -11.931092262268066,
        -24.5
      ],
      "type": "VEC2"
    },
    {
      "bufferView": 0,
      "byteOffset": 632892,
      "componentType": 5125,
      "count": 14976,
      "type": "SCALAR"
    },
    {
      "bufferView": 2,
      "byteOffset": 1720272,
      "componentType": 5126,
      "count": 226,
      "max": [
        0.6901782751083374,
        0.7370677590370178,
        1.3033684492111206
      ],
      "min": [
        -0.6901794075965881,
        -1.3838669061660767,
        -0.6901789903640747
      ],
      "type": "VEC3"
    },
    {
      "bufferView": 2,
      "byteOffset": 1722984,
      "componentType": 5126,
      "count": 226,
      "max": [
        0.5974187254905701,
        0.478348046541214,
        0.9736540913581848
      ],
      "min": [
        -0.5974191427230835,
        -1.0,
        -0.8964967131614685
      ],
      "type": "VEC3"
    },
    {
      "bufferView": 1,
      "byteOffset": 573424,
      "componentType": 5126,
      "count": 226,
      "max": [
        0.0,
        0.0
      ],
      "min": [
        0.0,
        0.0
      ],
      "type": "VEC2"
    },
    {
      "bufferView": 0,
      "byteOffset": 692796,
      "componentType": 5125,
      "count": 648,
      "type": "SCALAR"
    },
    {
      "bufferView": 2,
      "byteOffset": 1725696,
      "componentType": 5126,
      "count": 359,
      "max": [
        0.9207161664962769,
        0.9207186698913574,
        0.9823092222213745
      ],
      "min": [
        -0.9207166433334351,
        -0.9207186102867126,
        -0.9207135438919067
      ],
      "type": "VEC3"
    },
    {
      "bufferView": 2,
      "byteOffset": 1730004,
      "componentType": 5126,
      "count": 359,
      "max": [
        1.0,
        1.0,
        1.0
      ],
      "min": [
        -1.0,
        -1.0,
        -1.0
      ],
      "type": "VEC3"
    },
    {
      "bufferView": 1,
      "byteOffset": 575232,
      "componentType": 5126,
      "count": 359,
      "max": [
        0.0,
        0.0
      ],
      "min": [
        0.0,
        0.0
      ],
      "type": "VEC2"
    },
    {
      "bufferView": 0,
      "byteOffset": 695388,
      "componentType": 5125,
      "count": 1062,
      "type": "SCALAR"
    },
    {
      "bufferView": 2,
      "byteOffset": 1734312,
      "componentType": 5126,
      "count": 474,
      "max": [
        0.4009852409362793,
        -1.1367824077606201,
        -0.9665082693099976
      ],
      "min": [
        -0.4009857475757599,
        -1.273599624633789,
        -1.071192979812622
      ],
      "type": "VEC3"
    },
    {
      "bufferView": 2,
      "byteOffset": 1740000,
      "componentType": 5126,
      "count": 474,
      "max": [
        0.9999829530715942,
        1.0,
        1.0
      ],
      "min": [
        -0.9999829530715942,
        -1.0,
        -1.0
      ],
      "type": "VEC3"
    },
    {
      "bufferView": 1,
      "byteOffset": 578104,
      "componentType": 5126,
      "count": 474,
      "max": [
        19.0239315032959,
        23.944059371948242
      ],
      "min": [
        7.370598793029785,
        -24.5
      ],
      "type": "VEC2"
    },
    {
      "bufferView": 0,
      "byteOffset": 699636,
      "componentType": 5125,
      "count": 1272,
      "type": "SCALAR"
    },
    {
      "bufferView": 2,
      "byteOffset": 1745688,
      "componentType": 5126,
      "count": 36,
      "max": [
        0.6026533842086792,
        4.285567283630371,
        0.0562870129942894
      ],
      "min": [
        -0.6026533842086792,
        4.285567283630371,
        -0.06179167702794075
      ],
      "type": "VEC3"
    },
    {
      "bufferView": 2,
      "byteOffset": 1746120,
      "componentType": 5126,
      "count": 36,
      "max": [
        0.0,
        1.0,
        1.4832435226708185e-06
      ],
      "min": [
        0.0,
        1.0,
        0.0
      ],
      "type": "VEC3"
    },
    {
      "bufferView": 1,
      "byteOffset": 581896,
      "componentType": 5126,
      "count": 36,
      "max": [
        0.626368522644043,
        0.9752277135848999
      ],
      "min": [
        0.32664066553115845,
        0.6993383169174194
      ],
      "type": "VEC2"
    },
    {
      "bufferView": 0,
      "byteOffset": 704724,
      "componentType": 5125,
      "count": 96,
      "type": "SCALAR"
    },
    {
      "bufferView": 2,
      "byteOffset": 1746552,
      "componentType": 5126,
      "count": 30364,
      "max": [
        3.504207134246826,
        5.706750869750977,
        3.485433578491211
      ],
      "min": [
        -3.508749008178711,
        -4.865675926208496,
        -2.882352828979492
      ],
      "type": "VEC3"
    },
    {
      "bufferView": 2,
      "byteOffset": 2110920,
      "componentType": 5126,
      "count": 30364,
      "max": [
        1.0,
        1.0,
        1.0
      ],
      "min": [
        -1.0,
        -1.0,
        -1.0
      ],
      "type": "VEC3"
    },
    {
      "bufferView": 1,
      "byteOffset": 582184,
      "componentType": 5126,
      "count": 30364,
      "max": [
        0.6250000596046448,
        1.0
      ],
      "min": [
        0.0,
        0.0
      ],
      "type": "VEC2"
    },
    {
      "bufferView": 0,
      "byteOffset": 705108,
      "componentType": 5125,
      "count": 45576,
      "type": "SCALAR"
    },
    {
      "bufferView": 2,
      "byteOffset": 2475288,
      "componentType": 5126,
      "count": 65532,
      "max": [
        3.855300188064575,
        6.083274841308594,
        2.9547410011291504
      ],
      "min": [
        -3.855300188064575,
        -5.73771858215332,
        -2.9547410011291504
      ],
      "type": "VEC3"
    },
    {
      "bufferView": 2,
      "byteOffset": 3261672,
      "componentType": 5126,
      "count": 65532,
      "max": [
        1.0,
        1.0,
        1.0
      ],
      "min": [
        -1.0,
        -1.0,
        -1.0
      ],
      "type": "VEC3"
    },
    {
      "bufferView": 1,
      "byteOffset": 825096,
      "componentType": 5126,
      "count": 65532,
      "max": [
        1.0000001192092896,
        1.7000998258590698
      ],
      "min": [
        -0.004710461013019085,
        0.0
      ],
      "type": "VEC2"
    },
    {
      "bufferView": 0,
      "byteOffset": 887412,
      "componentType": 5125,
      "count": 168441,
      "type": "SCALAR"
    },
    {
      "bufferView": 2,
      "byteOffset": 4048056,
      "componentType": 5126,
      "count": 9789,
      "max": [
        3.7975051403045654,
        5.752885818481445,
        2.939784526824951
      ],
      "min": [
        -3.7975051403045654,
        -5.667568206787109,
        -2.939784526824951
      ],
      "type": "VEC3"
    },
    {
      "bufferView": 2,
      "byteOffset": 4165524,
      "componentType": 5126,
      "count": 9789,
      "max": [
        1.0,
        1.0,
        1.0
      ],
      "min": [
        -1.0,
        -1.0,
        -1.0
      ],
      "type": "VEC3"
    },
    {
      "bufferView": 1,
      "byteOffset": 1349352,
      "componentType": 5126,
      "count": 9789,
      "max": [
        1.0,
        1.0
      ],
      "min": [
        -1.862645149230957e-07,
        0.0
      ],
      "type": "VEC2"
    },
    {
      "bufferView": 0,
      "byteOffset": 1561176,
      "componentType": 5125,
      "count": 26583,
      "type": "SCALAR"
    },
    {
      "bufferView": 2,
      "byteOffset": 4282992,
      "componentType": 5126,
      "count": 14492,
      "max": [
        -0.6803910136222839,
        0.15327155590057373,
        0.8683099746704102
      ],
      "min": [
        -2.5855534076690674,
        -1.7907369136810303,
        -0.9320073127746582
      ],
      "type": "VEC3"
    },
    {
      "bufferView": 2,
      "byteOffset": 4456896,
      "componentType": 5126,
      "count": 14492,
      "max": [
        1.0,
        1.0,
        1.0
      ],
      "min": [
        -1.0,
        -1.0,
        -1.0
      ],
      "type": "VEC3"
    },
    {
      "bufferView": 1,
      "byteOffset": 1427664,
      "componentType": 5126,
      "count": 14492,
      "max": [
        1.0,
        1.000001072883606
      ],
      "min": [
        -1.862645149230957e-07,
        0.0
      ],
      "type": "VEC2"
    },
    {
      "bufferView": 0,
      "byteOffset": 1667508,
      "componentType": 5125,
      "count": 34182,
      "type": "SCALAR"
    },
    {
      "bufferView": 2,
      "byteOffset": 4630800,
      "componentType": 5126,
      "count": 72,
      "max": [
        -1.4522950649261475,
        -1.3547106981277466,
        0.07974657416343689
      ],
      "min": [
        -1.8088171482086182,
        -1.4073032140731812,
        -0.12125769257545471
      ],
      "type": "VEC3"
    },
    {
      "bufferView": 2,
      "byteOffset": 4631664,
      "componentType": 5126,
      "count": 72,
      "max": [
        0.23513899743556976,
        1.0,
        0.0
      ],
      "min": [
        -0.23513859510421753,
        0.9719618558883667,
        -1.230627162840392e-06
      ],
      "type": "VEC3"
    },
    {
      "bufferView": 1,
      "byteOffset": 1543600,
      "componentType": 5126,
      "count": 72,
      "max": [
        0.0,
        0.0
      ],
      "min": [
        0.0,
        0.0
      ],
      "type": "VEC2"
    },
    {
      "bufferView": 0,
      "byteOffset": 1804236,
      "componentType": 5125,
      "count": 198,
      "type": "SCALAR"
    }
  ],
  "asset": {
    "extras": {
      "author": "Daniel (https://sketchfab.com/DanielAndersson)",
      "license": "CC-BY-4.0 (http://creativecommons.org/licenses/by/4.0/)",
      "source": "https://sketchfab.com/3d-models/star-wars-tiead-avenger-44f5ea9895d041f99659d996a7ac5216",
      "title": "Star Wars: TIE/ad Avenger"
    },
    "generator": "Sketchfab-15.12.0",
    "version": "2.0"
  },
  "bufferViews": [
    {
      "buffer": 0,
      "byteLength": 1805028,
      "name": "floatBufferViews",
      "target": 34963
    },
    {
      "buffer": 0,
      "byteLength": 1544176,
      "byteOffset": 1805028,
      "byteStride": 8,
      "name": "floatBufferViews",
      "target": 34962
    },
    {
      "buffer": 0,
      "byteLength": 4632528,
      "byteOffset": 3349204,
      "byteStride": 12,
      "name": "floatBufferViews",
      "target": 34962
    }
  ],
  "buffers": [
    {
      "byteLength": 7981732,
      "uri": "scene.bin"
    }
  ],
  "extensionsUsed": [
    "KHR_materials_emissive_strength"
  ],
  "materials": [
    {
      "doubleSided": true,
      "name": "Metal",
      "pbrMetallicRoughness": {
        "baseColorFactor": [
          0.29114,
          0.29114,
          0.29114,
          1.0
        ],
        "roughnessFactor": 0.8761931464933987
      }
    },
    {
      "doubleSided": true,
      "name": "MetalDark",
      "pbrMetallicRoughness": {
        "baseColorFactor": [
          0.09760766351008722,
          0.09760766351008722,
          0.09760766351008722,
          1.0
        ],
        "roughnessFactor": 0.9127646865209493
      }
    },
    {
      "alphaMode": "BLEND",
      "doubleSided": true,
      "name": "DarkWindow",
      "pbrMetallicRoughness": {
        "baseColorFactor": [
          0.00560467,
          0.00560467,
          0.00560467,
          0.8579073764796235
        ],
        "metallicFactor": 0.0,
        "roughnessFactor": 0.9987467576888547
      }
    },
    {
      "doubleSided": true,
      "name": "PolishedMetalDark",
      "pbrMetallicRoughness": {
        "baseColorFactor": [
          0.0286504,
          0.0286504,
          0.0286504,
          1.0
        ],
        "roughnessFactor": 0.7055259596981628
      }
    },
    {
      "doubleSided": true,
      "name": "MetalOrange",
      "pbrMetallicRoughness": {
        "baseColorFactor": [
          1.0,
          0.24383786812995056,
          0.0,
          1.0
        ],
        "roughnessFactor": 0.8822884031646572
      }
    },
    {
      "doubleSided": true,
      "emissiveFactor": [
        0.9899636880863927,
        0.0,
        0.0
      ],
      "extensions": {
        "KHR_materials_emissive_strength": {
          "emissiveStrength": 3.276200460801404
        }
      },
      "name": "RedEngineGlow",
      "pbrMetallicRoughness": {
        "baseColorFactor": [
          0.7999999999999999,
          0.007688930000000005,
          0.013123400000000025,
          1.0
        ],
        "metallicFactor": 0.0,
        "roughnessFactor": 0.9605274450525919
      }
    },
    {
      "doubleSided": true,
      "name": "TieWIng",
      "pbrMetallicRoughness": {
        "baseColorFactor": [
          0.0168772,
          0.0168772,
          0.0168772,
          1.0
        ],
        "roughnessFactor": 0.22400068266874718
      }
    },
    {
      "doubleSided": true,
      "name": "BlankScreen",
      "pbrMetallicRoughness": {
        "baseColorFactor": [
          0.8,
          0.8,
          0.8,
          1.0
        ],
        "metallicFactor": 0.0,
        "roughnessFactor": 0.8211145618000169
      }
    }
  ],
  "meshes": [
    {
      "name": "TIE Avenger_Metal_0",
      "primitives": [
        {
          "attributes": {
            "NORMAL": 1,
            "POSITION": 0,
            "TEXCOORD_0": 2
          },
          "indices": 3,
          "material": 0,
          "mode": 4
        }
      ]
    },
    {
      "name": "TIE Avenger_Metal_0",
      "primitives": [
        {
          "attributes": {
            "NORMAL": 5,
            "POSITION": 4,
            "TEXCOORD_0": 6
          },
          "indices": 7,
          "material": 0,
          "mode": 4
        }
      ]
    },
    {
      "name": "TIE Avenger_MetalDark_0",
      "primitives": [
        {
          "attributes": {
            "NORMAL": 9,
            "POSITION": 8,
            "TEXCOORD_0": 10
          },
          "indices": 11,
          "material": 1,
          "mode": 4
        }
      ]
    },
    {
      "name": "TIE Avenger_DarkWindow_0",
      "primitives": [
        {
          "attributes": {
            "NORMAL": 13,
            "POSITION": 12,
            "TEXCOORD_0": 14
          },
          "indices": 15,
          "material": 2,
          "mode": 4
        }
      ]
    },
    {
      "name": "TIE Avenger_PolishedMetalDark_0",
      "primitives": [
        {
          "attributes": {
            "NORMAL": 17,
            "POSITION": 16,
            "TEXCOORD_0": 18
          },
          "indices": 19,
          "material": 3,
          "mode": 4
        }
      ]
    },
    {
      "name": "TIE Avenger_MetalOrange_0",
      "primitives": [
        {
          "attributes": {
            "NORMAL": 21,
            "POSITION": 20,
            "TEXCOORD_0": 22
          },
          "indices": 23,
          "material": 4,
          "mode": 4
        }
      ]
    },
    {
      "name": "TIE Avenger_RedEngineGlow_0",
      "primitives": [
        {
          "attributes": {
            "NORMAL": 25,
            "POSITION": 24,
            "TEXCOORD_0": 26
          },
          "indices": 27,
          "material": 5,
          "mode": 4
        }
      ]
    },
    {
      "name": "Wings_TieWIng_0",
      "primitives": [
        {
          "attributes": {
            "NORMAL": 29,
            "POSITION": 28,
            "TEXCOORD_0": 30
          },
          "indices": 31,
          "material": 6,
          "mode": 4
        }
      ]
    },
    {
      "name": "Wings_Metal_0",
      "primitives": [
        {
          "attributes": {
            "NORMAL": 33,
            "POSITION": 32,
            "TEXCOORD_0": 34
          },
          "indices": 35,
          "material": 0,
          "mode": 4
        }
      ]
    },
    {
      "name": "Wings_Metal_0",
      "primitives": [
        {
          "attributes": {
            "NORMAL": 37,
            "POSITION": 36,
            "TEXCOORD_0": 38
          },
          "indices": 39,
          "material": 0,
          "mode": 4
        }
      ]
    },
    {
      "name": "Interior_PolishedMetalDark_0",
      "primitives": [
        {
          "attributes": {
            "NORMAL": 41,
            "POSITION": 40,
            "TEXCOORD_0": 42
          },
          "indices": 43,
          "material": 3,
          "mode": 4
        }
      ]
    },
    {
      "name": "Interior_BlankScreen_0",
      "primitives": [
        {
          "attributes": {
            "NORMAL": 45,
            "POSITION": 44,
            "TEXCOORD_0": 46
          },
          "indices": 47,
          "material": 7,
          "mode": 4
        }
      ]
    }
  ],
  "nodes": [
    {
      "children": [
        1
      ],
      "matrix": [
        1.0,
        0.0,
        0.0,
        0.0,
        0.0,
        2.220446049250313e-16,
        -1.0,
        0.0,
        0.0,
        1.0,
        2.220446049250313e-16,
        0.0,
        0.0,
        0.0,
        0.0,
        1.0
      ],
      "name": "Sketchfab_model"
    },
    {
      "children": [
        2
      ],
      "matrix": [
        0.009999999776482582,
        0.0,
        0.0,
        0.0,
        0.0,
        0.0,
        0.009999999776482582,
        0.0,
        0.0,
        -0.009999999776482582,
        0.0,
        0.0,
        0.0,
        0.0,
        0.0,
        1.0
      ],
      "name": "8cc32feb9cce429e9ff7e6323e4e2047.fbx"
    },
    {
      "children": [
        3
      ],
      "name": "RootNode"
    },
    {
      "children": [
        4,
        5,
        6,
        7,
        8,
        9,
        10,
        11,
        15
      ],
      "matrix": [
        100.0,
        0.0,
        0.0,
        0.0,
        0.0,
        -2.8212996916465727e-05,
        -99.99999999999602,
        0.0,
        0.0,
        99.99999999999602,
        -2.8212996916465727e-05,
        0.0,
        0.0,
        3.997120074927807e-05,
        0.0,
        1.0
      ],
      "name": "TIE Avenger"
    },
    {
      "mesh": 0,
      "name": "TIE Avenger_Metal_0"
    },
    {
      "mesh": 1,
      "name": "TIE Avenger_Metal_0"
    },
    {
      "mesh": 2,
      "name": "TIE Avenger_MetalDark_0"
    },
    {
      "mesh": 3,
      "name": "TIE Avenger_DarkWindow_0"
    },
    {
      "mesh": 4,
      "name": "TIE Avenger_PolishedMetalDark_0"
    },
    {
      "mesh": 5,
      "name": "TIE Avenger_MetalOrange_0"
    },
    {
      "mesh": 6,
      "name": "TIE Avenger_RedEngineGlow_0"
    },
    {
      "children": [
        12,
        13,
        14
      ],
      "matrix": [
        1.0,
        0.0,
        0.0,
        0.0,
        0.0,
        1.0,
        -5.293955920339378e-23,
        0.0,
        0.0,
        5.293955920339378e-23,
        1.0,
        0.0,
        0.0,
        0.0,
        0.0,
        1.0
      ],
      "name": "Wings"
    },
    {
      "mesh": 7,
      "name": "Wings_TieWIng_0"
    },
    {
      "mesh": 8,
      "name": "Wings_Metal_0"
    },
    {
      "mesh": 9,
      "name": "Wings_Metal_0"
    },
    {
      "children": [
        16,
        17
      ],
      "matrix": [
        1.0,
        0.0,
        0.0,
        0.0,
        0.0,
        1.0,
        -5.293955920339378e-23,
        0.0,
        0.0,
        5.293955920339378e-23,
        1.0,
        0.0,
        1.6305574178695679,
        0.8142405152320862,
        -3.997120074927807e-07,
        1.0
      ],
      "name": "Interior"
    },
    {
      "mesh": 10,
      "name": "Interior_PolishedMetalDark_0"
    },
    {
      "mesh": 11,
      "name": "Interior_BlankScreen_0"
    }
  ],
  "scene": 0,
  "scenes": [
    {
      "name": "Sketchfab_Scene",
      "nodes": [
        0
      ]
    }
  ]
}
