<svg xmlns="http://www.w3.org/2000/svg" version="1.1" xmlns:xlink="http://www.w3.org/1999/xlink" xmlns:svgjs="http://svgjs.dev/svgjs" width="1000" height="1000" viewBox="0 0 1000 1000"><rect width="1000" height="1000" fill="#0a1627"></rect><g transform="matrix(0.7,0,0,0.7,149.57575757575756,282.1265587044535)"><svg viewBox="0 0 396 247" data-background-color="#0a1627" preserveAspectRatio="xMidYMid meet" height="623" width="1000" xmlns="http://www.w3.org/2000/svg" xmlns:xlink="http://www.w3.org/1999/xlink"><g id="tight-bounds" transform="matrix(1,0,0,1,0.2400000000000091,-0.09999999999999432)"><svg viewBox="0 0 395.52 247.2" height="247.2" width="395.52"><g><svg></svg></g><g><svg viewBox="0 0 395.52 247.2" height="247.2" width="395.52"><g transform="matrix(1,0,0,1,85.78282306163021,37.08)"><svg viewBox="0 0 223.95435387673956 173.04" height="173.04" width="223.95435387673956"><g><svg viewBox="0 0 223.95435387673956 173.04" height="173.04" width="223.95435387673956"><g><svg viewBox="0 0 223.95435387673956 173.04" height="173.04" width="223.95435387673956"><g><svg viewBox="0 0 223.95435387673956 173.04" height="173.04" width="223.95435387673956"><g id="textblocktransform"><svg viewBox="0 0 223.95435387673956 173.04" height="173.04" width="223.95435387673956" id="textblock"><g><svg viewBox="0 0 223.95435387673956 173.04" height="173.04" width="223.95435387673956"><g transform="matrix(1,0,0,1,0,0)"><svg width="223.95435387673956" viewBox="2.5 -25.149999618530273 32.54999923706055 25.149999618530273" height="173.04" data-palette-color="#fe0039"><path d="M26.9-25.15Q31.1-25.15 33.08-22.45 35.05-19.75 35.05-15L35.05-15 35.05 0 30 0 30-14.35Q30-17.65 29.05-19.23 28.1-20.8 25.85-20.8L25.85-20.8Q23.65-20.8 22.48-19.3 21.3-17.8 21.3-15L21.3-15 21.3 0 16.25 0 16.25-14.35Q16.25-17.6 15.28-19.2 14.3-20.8 12.3-20.8L12.3-20.8Q9.35-20.8 7.6-17.9L7.6-17.9 7.6 0 2.5 0 2.5-24.7 6.75-24.7 7.05-22.1Q8.15-23.55 9.8-24.35 11.45-25.15 13.45-25.15L13.45-25.15Q15.6-25.15 17.2-24.18 18.8-23.2 19.75-21.45L19.75-21.45Q20.8-23.2 22.63-24.18 24.45-25.15 26.9-25.15L26.9-25.15Z" opacity="1" transform="matrix(1,0,0,1,0,0)" fill="#fe0039" class="undefined-text-0" data-fill-palette-color="primary" id="text-0"></path></svg></g></svg></g></svg></g></svg></g><g></g></svg></g></svg></g></svg></g><g><path xmlns="http://www.w3.org/2000/svg" d="M0 247.2v-247.2h395.52v247.2zM379.915 231.595v-215.99h-364.31v215.99z" fill="#fe0039" fill-rule="nonzero" stroke="none" stroke-width="1" stroke-linecap="butt" stroke-linejoin="miter" stroke-miterlimit="10" stroke-dasharray="" stroke-dashoffset="0" font-family="none" font-weight="none" font-size="none" text-anchor="none" style="mix-blend-mode: normal" data-fill-palette-color="tertiary"></path></g></svg></g><defs></defs></svg><rect width="395.52" height="247.2" fill="none" stroke="none" visibility="hidden"></rect></g></svg></g></svg>